# xmcd CD database file
#
# Track frame offsets:
#	150
#	10142
#	22295
#	33455
#	44097
#	54755
#	64552
#	75967
#	85417
#	96940
#	106927
#	117112
#	128045
#	139022
#	147637
#	157820
#	169982
#	178910
#	188755
#	199345
#	208007
#	217860
#	229977
#	240857
#	252602
#	264080
#	274640
#	286685
#	298700
#	311180
#
# Disc length: 4276 seconds
#
# Revision: 2
# Processed by: cddbd v1.5.2PL0 Copyright (c) Steve Scherf et al.
# Submitted via: CDex 1.79
#
DISCID=b110b21e
DTITLE=Johnny Bond - Put Me To Bed
DYEAR=2007
DGENRE=Country
TTITLE0=The Little Rock Roll
TTITLE1=Alabama Boogie Boy
TTITLE2=The Son Of Old Casey
TTITLE3=Put A Little Sweetin' In Your Heart
TTITLE4=I'll Be Here (After You're Gone)
TTITLE5=Honky-Tonk Fever
TTITLE6=Fast Woman And Sloe Gin
TTITLE7=Livin' It Up
TTITLE8=Keep Your Cotton Pickin' Hands Of My Gal
TTITLE9=Lay It On The Line
TTITLE10=Somebody's Pushin'
TTITLE11=Sale Of Broken Hearts
TTITLE12=That's Just What I'll Do
TTITLE13=Wild Cat Baby
TTITLE14=Don't Take Away
TTITLE15=Wildcat Boogie
TTITLE16=Broken Doll
TTITLE17=Louisiana Swing
TTITLE18=Number Nine Blues
TTITLE19=All I Can Do Is Cry
TTITLE20=Lonesome Train
TTITLE21=Put Me To Bed
TTITLE22=It Ain't Gonna Happen To Me
TTITLE23=Tennessee, Kentucky and Alabam'
TTITLE24=Barrel House Bessie
TTITLE25=Bartender's Blues
TTITLE26=Women Make A Fool Out Of Me
TTITLE27=Tennessee Walking Horse
TTITLE28=Put Me To Bed #2
TTITLE29=I'm Pounding The Rails Again
EXTD=YEAR: 2007
EXTT0=
EXTT1=
EXTT2=
EXTT3=
EXTT4=
EXTT5=
EXTT6=
EXTT7=
EXTT8=
EXTT9=
EXTT10=
EXTT11=
EXTT12=
EXTT13=
EXTT14=
EXTT15=
EXTT16=
EXTT17=
EXTT18=
EXTT19=
EXTT20=
EXTT21=
EXTT22=
EXTT23=
EXTT24=
EXTT25=
EXTT26=
EXTT27=
EXTT28=
EXTT29=
PLAYORDER=
